Patient4_TMGait_0pt4_02_left_28_EMG.mot
version=1
nRows=23
nColumns=33
inDegrees=no
endheader
time	1LAddLong	2LGlutMax	3LGlutMed	4LIliopsoas	5LSemiMemb	6LBicFemLong	7LRecFem	8LVastMed	9LVastLat	10LGasMed	11LTibAnt	12lTibPost	13LPeroneusLong	14LSol	15LExtDigLong	16LFlexDigLong	17RAddLong	18RGlutMax	19RGlutMed	20RIliopsoas	21RSemiMemb	22RBicFemLong	23RRecFem	24RVastMed	25RVastLat	26RGasMed	27RTibAnt	28RTibPost	29RPeroneusLong	30RSol	31RExtDigLong	32RFlexDigLong
38.955	0.00824	0.026398	-0.061646	0.007629	-0.004425	-0.091705	-0.084991	-0.001221	0.076904	-0.058899	-0.017548	-0.015106	0.097046	-0.05249	-0.15884	0.001526	0.007324	-0.027924	-0.24811	-0.002441	-0.000305	0.033112	0.02655	-0.099792	0.001373	0.018311	0.017242	-0.002289	-0.6282	0.027618	-0.00061	-0.007782
38.956	0.003662	0.053558	-0.069122	0.009155	0.01709	-0.10361	-0.063934	0.007019	0.07782	-0.057678	-0.074615	0.01709	0.1181	-0.026703	-0.15869	-0.012207	0.004883	-0.009918	-0.098572	-0.083313	-0.002899	0.059662	-0.036469	-0.015106	0.059052	0.010834	-0.028229	-0.003357	-0.48889	0.033875	-0.004578	-0.009766
38.957	0.001373	0.064392	-0.083618	0.007324	-0.011597	-0.072784	-0.065155	0.006561	0.078125	-0.033875	-0.048981	0.01709	0.008087	-0.03067	-0.096436	-0.005798	-0.00061	0.031586	0.24185	-0.077362	-0.002136	0.05188	-0.061188	0.068817	0.032806	-0.013428	0.063629	-0.012817	-0.19699	0.025024	0.001221	-0.013123
38.958	0.006561	0.066223	-0.041046	-0.013275	0.001831	-0.081329	-0.063629	-0.00061	0.077209	-0.012817	-0.027771	-0.010223	-0.038757	-0.075073	0.003967	-0.011444	0.006866	0.005188	0.17853	-0.031738	-0.009003	0.04364	-0.1535	0.045776	0.038605	-0.010681	0.05127	-0.010681	-0.03006	0.068665	-0.000458	-0.016174
38.959	0.013733	0.072174	-0.064087	-0.00946	-0.040283	-0.072479	-0.05722	-0.00824	0.071106	-0.026398	0.025177	-0.001678	-0.029755	-0.080109	0.048828	0.000763	0.003052	-0.025177	0.40817	0.055542	-0.003052	0.050659	-0.2301	0.016632	0.16205	0.000305	-0.041199	-0.009918	0.010681	-0.05722	-0.00061	-0.013885
38.96	0.016174	0.070496	-0.029449	0.008087	-0.00412	-0.012817	-0.06073	0.001526	0.059052	-0.023804	0.038147	0.00946	-0.004578	-0.064087	0.039063	-0.001831	0.009918	0.014191	0.57587	0.1033	0.001526	0.046692	-0.015106	-0.03006	0.050354	-0.000458	0.052185	-0.001831	0.026093	-0.082855	-0.001831	-0.009918
38.961	0.010681	0.094299	0.009308	0.020752	0.005646	-0.020142	-0.041962	-0.000458	0.050964	-0.038452	-0.014954	-0.005951	0.015259	-0.068207	-0.034485	-0.007477	0.014191	-0.036621	0.44617	0.10132	0.001526	0.050049	0.027466	-0.036469	0.028992	-0.012817	0.070801	-0.00824	0.047913	-0.15671	0	-0.016022
38.962	0.011444	0.079193	-0.035095	0.014801	0.016785	-0.016022	-0.070648	0.00351	0.059357	-0.042725	-0.045319	0.001373	0.055542	-0.079346	-0.032654	-0.009155	0.000458	-0.1149	-0.17502	0.11597	0.004425	0.06012	0.11932	0.045319	-0.004425	-0.020599	0.061951	-0.008698	0.034637	-0.21545	0.001068	-0.007629
38.963	0.012512	0.078125	-0.015564	0.003815	0.026703	-0.007477	-0.039368	-0.001678	0.075531	-0.046082	-0.042267	-0.009613	0.06012	-0.061951	-0.014343	-0.000916	0.00946	-0.11108	-0.69611	0.088654	0.006256	0.046234	0.23422	-0.060425	-0.13718	-0.013275	0.054779	-0.007935	0.02594	0.085602	-0.001221	-0.007477
38.964	0.001984	0.06485	-0.011902	0.004425	0.020599	0.016174	-0.064087	0.000763	0.066223	-0.055084	0.014801	0.00412	0.04364	-0.047607	0.016937	0.004578	0.010834	-0.13123	-0.37216	0.046692	-0.001373	0.053101	0.29709	-0.091095	-0.17059	-0.018768	0.040283	-0.002899	0.18127	0.20508	-0.000153	-0.01236
38.965	0.002136	0.074615	-0.018463	0.002136	-0.051422	0.050049	-0.039215	0.004272	0.063171	-0.039063	0.056	-0.00412	0.023956	-0.052795	0.044861	0.005341	0.001984	-0.1033	0.21637	-0.018921	-0.001678	0.062561	0.29556	-0.16708	-0.13596	-0.016174	0.04364	-0.010834	0.15289	0.013123	-0.00061	0.000305
38.966	0.007172	0.076447	0.021057	0.007172	-0.04425	-0.004883	-0.030823	-0.005646	0.066376	-0.036926	0.063782	0.007172	0.009308	-0.047455	0.051575	-0.005188	-0.000305	-0.089264	0.39078	-0.14023	0.002441	0.036926	0.1976	-0.2095	-0.012817	0.008545	0.075836	-0.009308	0.035553	-0.093231	-0.001526	-0.002136
38.967	0.010681	0.082397	0.012207	-0.00061	0.039368	-0.00885	-0.037079	-0.000305	0.057068	-0.02121	0.03067	-0.010071	0.002441	-0.045624	0.042114	-0.008392	-0.005646	-0.04837	0.44159	-0.12344	-0.001068	0.037079	0.47363	-0.27298	-0.053558	0.007019	0.096588	-0.009308	-0.31036	-0.06134	0.001068	-0.00885
38.968	0.009308	0.06897	-0.010834	0.010986	-0.045471	-0.025024	-0.039215	-0.002289	0.061035	-0.027771	0.011749	0.000153	0.029297	-0.039673	0.042877	0.000763	0.001984	-0.11368	-0.19943	0.040741	-0.018311	0.028534	0.61569	-0.37109	-0.26398	-0.007019	0.076599	-0.021667	-0.47989	0.013733	0.000458	-0.00061
38.969	0.014038	0.074005	-0.010529	0.01709	-0.021973	-0.050201	-0.03418	-0.003662	0.053711	-0.025177	0.008698	-0.007172	0.008698	-0.036774	0.03418	-0.003052	0	-0.12497	-0.40482	0.17044	0.00473	0.050812	0.11414	-0.22629	-0.24872	-0.016785	-0.012817	-0.015411	0.013885	0.14877	0.006104	0.002747
38.97	0.011444	0.10803	-0.023956	0.009766	-0.053406	-0.051422	-0.037689	-0.000153	0.055542	-0.030212	0.030975	-0.001526	0.013885	-0.050812	0.023651	0.005798	-0.010071	-0.025177	-0.23819	0.073242	0.003815	0.031433	-0.24323	0.004578	-0.17654	-0.022583	0.005798	-0.016022	-0.39108	0.25116	0.001221	-0.016174
38.971	0.017548	0.11032	-0.024261	-0.00824	-0.10635	-0.059052	-0.032196	-0.002441	0.059814	-0.038147	0.037689	-0.001373	0.020447	-0.055542	0.015717	-0.006714	-0.003967	0.018921	0.18066	-0.088348	-0.001373	0.015869	-0.21454	-0.058594	-0.025482	-0.01709	0.10819	0.022736	-0.50537	0.19592	0.001221	-0.00824
38.972	0.005798	0.091705	-0.039215	-0.015411	-0.069122	-0.039673	-0.032501	0.000305	0.059357	-0.042572	0.018463	-0.008087	0.017242	-0.08194	0.026398	0.004425	-0.010376	-0.014038	0.58594	-0.16159	0.006714	0.019379	-0.45517	-0.22629	0.16998	0.002899	0.09201	0.019073	-0.23331	0.031433	0.000916	-0.008698
38.973	0.002747	0.11353	-0.03891	-0.000458	0.040131	-0.069275	-0.039215	-0.014954	0.062408	-0.035553	0.011749	0.000763	0.009155	-0.12268	0.027924	0.003662	0.009918	0.031433	1.1568	-0.067749	0.001221	0.020752	-0.37125	-0.046844	0.27222	0.000458	-0.10452	0.001221	0.39887	-0.069122	0.001221	-0.011292
38.974	0.026093	0.11032	-0.029602	0.013428	0.045929	-0.095215	-0.043945	-0.005035	0.066681	-0.032349	0.005341	0.005341	0.018005	-0.15198	0.038147	0.002594	0.011444	0.019226	0.81192	0.044098	0.000763	-0.002441	-0.31998	0.31494	0.27145	0.000305	-0.032959	-0.011749	0.38147	0.13062	-0.00061	-0.015717
38.975	-0.014954	0.092621	-0.039368	0.00946	0.057526	-0.06485	-0.032349	-0.00412	0.063477	-0.025482	0.006256	0.004272	0.001221	-0.10819	0.03418	0.008392	0.005646	-0.09201	-0.079498	0.066223	0.000305	0.003967	-0.29862	0.43564	0.15274	-0.013733	0.022888	-0.007019	0.056305	0.18967	-0.001068	-0.019073
38.976	0.008392	0.10132	-0.039215	0.015869	0.046082	-0.0383	-0.016632	-0.001373	0.06897	-0.041962	-0.002594	0.005951	0.011292	-0.094604	0.016632	-0.001373	0.00061	-0.057678	0.006714	-0.053864	0.012054	0.027161	-0.49774	0.28366	0.12207	0.000458	-0.063019	-0.005798	1.0463	-0.042725	-0.006866	-0.014038
38.977	0.022278	0.092926	-0.021362	0.01358	0.023346	0.001678	-0.016785	-0.003052	0.066986	-0.037231	-0.023651	0.003204	0.013428	-0.070038	0.005035	0.005798	-0.009918	-0.018463	0.007019	-0.19486	0.009155	0.026093	-0.34775	0.42648	0.19333	0.006409	-0.11414	-0.007935	1.6267	-0.057068	0.002441	-0.010834
